# xmcd CD database file
#
# Track frame offsets:
#	150
#	20180
#	38102
#	51317
#	68335
#	83315
#	96647
#	117647
#	134175
#	142647
#	161527
#	172525
#	191705
#	209340
#	225757
#	245250
#
# Disc length: 3478 seconds
#
# Revision: 15
# Processed by: cddbd v1.5.2PL0 Copyright (c) Steve Scherf et al.
# Submitted via: CDex 1.70beta2
#
DISCID=d00d9410
DTITLE=Enya - Paint The Sky - The Best Of Enya
DYEAR=1997
DGENRE=Pop
TTITLE0=オリノコ・フロウ
TTITLE1=カリビアン・ブルー
TTITLE2=ブック・オブ・デイズ
TTITLE3=エニウェア・イズ
TTITLE4=オンリー・イフ
TTITLE5=ケルツ
TTITLE6=チャイナ・ローゼズ
TTITLE7=シェパード・ムーン
TTITLE8=エビュデー
TTITLE9=ストームス・イン・アメリカ
TTITLE10=ウォーターマーク
TTITLE11=ペイント・ザ・スカイ
TTITLE12=マーブル・ホールズ
TTITLE13=オン・マイ・ウェイ・ホーム
TTITLE14=メモリ・オブ・トゥリーズ
TTITLE15=ボーディシア
EXTD=YEAR: 1997
EXTT0=
EXTT1=
EXTT2=
EXTT3=
EXTT4=
EXTT5=
EXTT6=
EXTT7=
EXTT8=
EXTT9=
EXTT10=
EXTT11=
EXTT12=
EXTT13=
EXTT14=
EXTT15=
PLAYORDER=
